<svg xmlns="http://www.w3.org/2000/svg" viewBox="0 0 960 540"><defs><linearGradient id="metal" x2="0.8" y2="1"><stop stop-color="#fff4c6"/><stop offset=".22" stop-color="#927044"/><stop offset=".48" stop-color="#f8d999"/><stop offset=".7" stop-color="#785737"/><stop offset="1" stop-color="#e7c392"/></linearGradient><radialGradient id="light"><stop stop-color="#fff" stop-opacity=".3"/><stop offset="1" stop-color="#fff" stop-opacity="0"/></radialGradient></defs><defs><linearGradient id="chrome" x2=".8" y2="1"><stop stop-color="#fff"/><stop offset=".2" stop-color="#9efbff"/><stop offset=".42" stop-color="#263747"/><stop offset=".6" stop-color="#d4e8fa"/><stop offset=".8" stop-color="#9b64a2"/><stop offset="1" stop-color="#172439"/></linearGradient></defs><rect width="960" height="540" fill="#0b1527"/><ellipse cx="720" cy="262" rx="300" ry="270" fill="url(#light)"/><g transform="translate(435 25) rotate(8 235 245)"><rect width="470" height="490" rx="25" fill="#101a31" stroke="url(#chrome)" stroke-width="10"/><rect x="16" y="16" width="438" height="458" rx="18" fill="none" stroke="#76eaff" stroke-width="2"/><circle cx="235" cy="70" r="14" fill="#77f7ff" opacity=".12"/><circle cx="235" cy="70" r="5" fill="url(#chrome)" stroke="#77f7ff" stroke-width="2"/><circle cx="214" cy="109" r="14" fill="#fa68e3" opacity=".12"/><circle cx="214" cy="109" r="5" fill="url(#chrome)" stroke="#fa68e3" stroke-width="2"/><circle cx="256" cy="109" r="14" fill="#fa68e3" opacity=".12"/><circle cx="256" cy="109" r="5" fill="url(#chrome)" stroke="#fa68e3" stroke-width="2"/><circle cx="193" cy="148" r="14" fill="#77f7ff" opacity=".12"/><circle cx="193" cy="148" r="5" fill="url(#chrome)" stroke="#77f7ff" stroke-width="2"/><circle cx="235" cy="148" r="14" fill="#77f7ff" opacity=".12"/><circle cx="235" cy="148" r="5" fill="url(#chrome)" stroke="#77f7ff" stroke-width="2"/><circle cx="277" cy="148" r="14" fill="#77f7ff" opacity=".12"/><circle cx="277" cy="148" r="5" fill="url(#chrome)" stroke="#77f7ff" stroke-width="2"/><circle cx="172" cy="187" r="14" fill="#fa68e3" opacity=".12"/><circle cx="172" cy="187" r="5" fill="url(#chrome)" stroke="#fa68e3" stroke-width="2"/><circle cx="214" cy="187" r="14" fill="#fa68e3" opacity=".12"/><circle cx="214" cy="187" r="5" fill="url(#chrome)" stroke="#fa68e3" stroke-width="2"/><circle cx="256" cy="187" r="14" fill="#fa68e3" opacity=".12"/><circle cx="256" cy="187" r="5" fill="url(#chrome)" stroke="#fa68e3" stroke-width="2"/><circle cx="298" cy="187" r="14" fill="#fa68e3" opacity=".12"/><circle cx="298" cy="187" r="5" fill="url(#chrome)" stroke="#fa68e3" stroke-width="2"/><circle cx="151" cy="226" r="14" fill="#77f7ff" opacity=".12"/><circle cx="151" cy="226" r="5" fill="url(#chrome)" stroke="#77f7ff" stroke-width="2"/><circle cx="193" cy="226" r="14" fill="#77f7ff" opacity=".12"/><circle cx="193" cy="226" r="5" fill="url(#chrome)" stroke="#77f7ff" stroke-width="2"/><circle cx="235" cy="226" r="14" fill="#77f7ff" opacity=".12"/><circle cx="235" cy="226" r="5" fill="url(#chrome)" stroke="#77f7ff" stroke-width="2"/><circle cx="277" cy="226" r="14" fill="#77f7ff" opacity=".12"/><circle cx="277" cy="226" r="5" fill="url(#chrome)" stroke="#77f7ff" stroke-width="2"/><circle cx="319" cy="226" r="14" fill="#77f7ff" opacity=".12"/><circle cx="319" cy="226" r="5" fill="url(#chrome)" stroke="#77f7ff" stroke-width="2"/><circle cx="130" cy="265" r="14" fill="#fa68e3" opacity=".12"/><circle cx="130" cy="265" r="5" fill="url(#chrome)" stroke="#fa68e3" stroke-width="2"/><circle cx="172" cy="265" r="14" fill="#fa68e3" opacity=".12"/><circle cx="172" cy="265" r="5" fill="url(#chrome)" stroke="#fa68e3" stroke-width="2"/><circle cx="214" cy="265" r="14" fill="#fa68e3" opacity=".12"/><circle cx="214" cy="265" r="5" fill="url(#chrome)" stroke="#fa68e3" stroke-width="2"/><circle cx="256" cy="265" r="14" fill="#fa68e3" opacity=".12"/><circle cx="256" cy="265" r="5" fill="url(#chrome)" stroke="#fa68e3" stroke-width="2"/><circle cx="298" cy="265" r="14" fill="#fa68e3" opacity=".12"/><circle cx="298" cy="265" r="5" fill="url(#chrome)" stroke="#fa68e3" stroke-width="2"/><circle cx="340" cy="265" r="14" fill="#fa68e3" opacity=".12"/><circle cx="340" cy="265" r="5" fill="url(#chrome)" stroke="#fa68e3" stroke-width="2"/><circle cx="109" cy="304" r="14" fill="#77f7ff" opacity=".12"/><circle cx="109" cy="304" r="5" fill="url(#chrome)" stroke="#77f7ff" stroke-width="2"/><circle cx="151" cy="304" r="14" fill="#77f7ff" opacity=".12"/><circle cx="151" cy="304" r="5" fill="url(#chrome)" stroke="#77f7ff" stroke-width="2"/><circle cx="193" cy="304" r="14" fill="#77f7ff" opacity=".12"/><circle cx="193" cy="304" r="5" fill="url(#chrome)" stroke="#77f7ff" stroke-width="2"/><circle cx="235" cy="304" r="14" fill="#77f7ff" opacity=".12"/><circle cx="235" cy="304" r="5" fill="url(#chrome)" stroke="#77f7ff" stroke-width="2"/><circle cx="277" cy="304" r="14" fill="#77f7ff" opacity=".12"/><circle cx="277" cy="304" r="5" fill="url(#chrome)" stroke="#77f7ff" stroke-width="2"/><circle cx="319" cy="304" r="14" fill="#77f7ff" opacity=".12"/><circle cx="319" cy="304" r="5" fill="url(#chrome)" stroke="#77f7ff" stroke-width="2"/><circle cx="361" cy="304" r="14" fill="#77f7ff" opacity=".12"/><circle cx="361" cy="304" r="5" fill="url(#chrome)" stroke="#77f7ff" stroke-width="2"/><circle cx="88" cy="343" r="14" fill="#fa68e3" opacity=".12"/><circle cx="88" cy="343" r="5" fill="url(#chrome)" stroke="#fa68e3" stroke-width="2"/><circle cx="130" cy="343" r="14" fill="#fa68e3" opacity=".12"/><circle cx="130" cy="343" r="5" fill="url(#chrome)" stroke="#fa68e3" stroke-width="2"/><circle cx="172" cy="343" r="14" fill="#fa68e3" opacity=".12"/><circle cx="172" cy="343" r="5" fill="url(#chrome)" stroke="#fa68e3" stroke-width="2"/><circle cx="214" cy="343" r="14" fill="#fa68e3" opacity=".12"/><circle cx="214" cy="343" r="5" fill="url(#chrome)" stroke="#fa68e3" stroke-width="2"/><circle cx="256" cy="343" r="14" fill="#fa68e3" opacity=".12"/><circle cx="256" cy="343" r="5" fill="url(#chrome)" stroke="#fa68e3" stroke-width="2"/><circle cx="298" cy="343" r="14" fill="#fa68e3" opacity=".12"/><circle cx="298" cy="343" r="5" fill="url(#chrome)" stroke="#fa68e3" stroke-width="2"/><circle cx="340" cy="343" r="14" fill="#fa68e3" opacity=".12"/><circle cx="340" cy="343" r="5" fill="url(#chrome)" stroke="#fa68e3" stroke-width="2"/><circle cx="382" cy="343" r="14" fill="#fa68e3" opacity=".12"/><circle cx="382" cy="343" r="5" fill="url(#chrome)" stroke="#fa68e3" stroke-width="2"/><circle cx="67" cy="382" r="14" fill="#77f7ff" opacity=".12"/><circle cx="67" cy="382" r="5" fill="url(#chrome)" stroke="#77f7ff" stroke-width="2"/><circle cx="109" cy="382" r="14" fill="#77f7ff" opacity=".12"/><circle cx="109" cy="382" r="5" fill="url(#chrome)" stroke="#77f7ff" stroke-width="2"/><circle cx="151" cy="382" r="14" fill="#77f7ff" opacity=".12"/><circle cx="151" cy="382" r="5" fill="url(#chrome)" stroke="#77f7ff" stroke-width="2"/><circle cx="193" cy="382" r="14" fill="#77f7ff" opacity=".12"/><circle cx="193" cy="382" r="5" fill="url(#chrome)" stroke="#77f7ff" stroke-width="2"/><circle cx="235" cy="382" r="14" fill="#77f7ff" opacity=".12"/><circle cx="235" cy="382" r="5" fill="url(#chrome)" stroke="#77f7ff" stroke-width="2"/><circle cx="277" cy="382" r="14" fill="#77f7ff" opacity=".12"/><circle cx="277" cy="382" r="5" fill="url(#chrome)" stroke="#77f7ff" stroke-width="2"/><circle cx="319" cy="382" r="14" fill="#77f7ff" opacity=".12"/><circle cx="319" cy="382" r="5" fill="url(#chrome)" stroke="#77f7ff" stroke-width="2"/><circle cx="361" cy="382" r="14" fill="#77f7ff" opacity=".12"/><circle cx="361" cy="382" r="5" fill="url(#chrome)" stroke="#77f7ff" stroke-width="2"/><circle cx="403" cy="382" r="14" fill="#77f7ff" opacity=".12"/><circle cx="403" cy="382" r="5" fill="url(#chrome)" stroke="#77f7ff" stroke-width="2"/><path d="M235 34Q251 53 235 60Q215 69 214 98Q259 108 256 137Q289 147 277 176Q321 185 298 215Q255 224 277 254" fill="none" stroke="#f477e9" stroke-width="14" opacity=".15"/><path d="M235 34Q251 53 235 60Q215 69 214 98Q259 108 256 137Q289 147 277 176Q321 185 298 215Q255 224 277 254" fill="none" stroke="#8cfbff" stroke-width="3" opacity=".8"/><circle cx="277" cy="254" r="31" fill="#b8fdff" opacity=".15"/><circle cx="277" cy="254" r="15" fill="url(#chrome)"/><circle cx="272" cy="248" r="4" fill="#fff"/><rect x="28" y="424" width="36" height="37" rx="6" fill="#b27344" stroke="#ffcd7f" stroke-width="2"/><rect x="70" y="424" width="36" height="37" rx="6" fill="#354e7a" stroke="#b394ff" stroke-width="2"/><rect x="112" y="424" width="36" height="37" rx="6" fill="#354e7a" stroke="#b394ff" stroke-width="2"/><rect x="154" y="424" width="36" height="37" rx="6" fill="#354e7a" stroke="#b394ff" stroke-width="2"/><rect x="196" y="424" width="36" height="37" rx="6" fill="#354e7a" stroke="#b394ff" stroke-width="2"/><rect x="238" y="424" width="36" height="37" rx="6" fill="#354e7a" stroke="#b394ff" stroke-width="2"/><rect x="280" y="424" width="36" height="37" rx="6" fill="#354e7a" stroke="#b394ff" stroke-width="2"/><rect x="322" y="424" width="36" height="37" rx="6" fill="#354e7a" stroke="#b394ff" stroke-width="2"/><rect x="364" y="424" width="36" height="37" rx="6" fill="#354e7a" stroke="#b394ff" stroke-width="2"/><rect x="406" y="424" width="36" height="37" rx="6" fill="#b27344" stroke="#ffcd7f" stroke-width="2"/></g></svg>
